<svg version="1.1" id="Layer_1" xmlns="http://www.w3.org/2000/svg" xmlns:xlink="http://www.w3.org/1999/xlink" x="0px" y="0px"
	 width="100%" viewBox="0 0 528 464" enable-background="new 0 0 528 464" xml:space="preserve">
<path fill="#000000" opacity="1.000000" stroke="none" 
	d="
M295.374878,51.470268 
	C315.814880,58.805225 333.192261,70.474770 349.026337,84.454552 
	C373.782349,106.311378 397.293427,129.471893 418.535248,154.782120 
	C432.450439,171.362503 443.705414,189.621948 449.208374,210.898666 
	C456.464783,238.955017 451.613190,265.314880 437.841888,290.352966 
	C430.421600,303.844086 421.222412,316.052582 410.860992,327.434723 
	C389.081146,351.360138 366.466278,374.453644 341.529297,395.101410 
	C325.498993,408.374420 307.788055,418.935577 287.362640,424.188599 
	C258.949982,431.495789 232.306122,426.521393 206.974854,412.484314 
	C187.539169,401.714233 171.011765,387.208588 155.312347,371.767029 
	C134.655167,351.449097 113.425652,331.606476 96.368599,307.967163 
	C85.768661,293.276733 77.482513,277.503754 73.370491,259.602051 
	C66.997444,231.856949 72.107491,206.114227 85.779839,181.677383 
	C97.037941,161.555557 112.383804,144.667007 128.429337,128.371506 
	C146.201767,110.322205 163.983444,92.251633 183.861694,76.473587 
	C204.001312,60.488083 226.121582,48.513664 252.227127,45.971649 
	C266.796844,44.552933 281.133575,46.442543 295.374878,51.470268 
M146.674271,355.824829 
	C164.046768,373.105316 181.449219,390.360413 202.257141,403.636353 
	C225.976501,418.769775 251.503082,426.054108 279.698578,420.685242 
	C297.184418,417.355652 312.785522,409.489899 327.123352,399.231537 
	C353.834808,380.120087 376.243439,356.268738 398.861359,332.732086 
	C412.263580,318.785461 424.497009,303.776245 433.729675,286.615601 
	C444.507782,266.582397 449.242737,245.415894 445.930328,222.605209 
	C442.666016,200.125854 432.172363,181.017960 418.640411,163.422119 
	C399.989105,139.169464 377.879730,118.111473 355.722626,97.161118 
	C342.382629,84.547661 328.115509,73.110001 311.842499,64.301956 
	C286.175232,50.409092 259.523438,46.504700 231.407928,55.482391 
	C214.169342,60.986919 199.056122,70.365822 185.186905,81.702827 
	C160.752396,101.676140 138.912689,124.374725 117.507889,147.484467 
	C105.226105,160.744537 94.682373,175.295822 86.579132,191.495773 
	C79.163780,206.320480 75.036682,222.165359 75.572617,238.674667 
	C76.269379,260.137970 83.891975,279.507416 95.696037,297.430145 
	C109.926651,319.037201 127.997589,337.206238 146.674271,355.824829 
z"/>
<path fill="#000000" opacity="1.000000" stroke="none" 
	d="
M268.388550,201.555283 
	C270.494873,219.876526 268.911011,237.865845 269.314148,255.819031 
	C269.373230,258.451172 268.939575,260.379944 265.598633,260.335907 
	C262.167511,260.290619 261.985809,258.044434 261.979370,255.601547 
	C261.940796,240.943970 261.930511,226.286316 261.911499,211.628677 
	C261.909149,209.822678 261.911163,208.016693 261.270111,206.212555 
	C261.270111,221.509003 261.270935,236.805466 261.268829,252.101913 
	C261.268616,253.600906 261.216614,255.100632 261.248199,256.598755 
	C261.299225,259.016754 260.334473,260.298737 257.732971,260.331238 
	C255.198364,260.362854 253.909409,259.201935 253.993088,256.780640 
	C254.606674,239.025864 252.174500,221.192459 255.349564,203.508728 
	C255.573929,202.259140 255.327988,201.247437 254.713959,200.198212 
	C251.347412,194.445709 250.538620,188.190643 250.620544,181.611160 
	C250.685730,176.375031 253.111221,173.786407 257.950653,172.438614 
	C262.446533,171.186539 266.697388,171.908432 270.552307,173.834396 
	C275.440857,176.276794 273.555573,181.493454 273.207794,185.132278 
	C272.685364,190.598007 271.897491,196.379684 268.388550,201.555283 
M255.937790,195.438354 
	C257.516602,198.748093 259.351685,201.872635 263.782684,200.103683 
	C267.484589,198.625793 270.341156,189.811951 268.431091,186.477081 
	C267.006561,183.989914 260.549957,183.529755 256.914246,185.551224 
	C252.368744,188.078537 255.189072,191.561646 255.937790,195.438354 
M263.153442,174.869843 
	C259.457306,175.462463 254.661163,174.409531 254.190475,180.724854 
	C259.860931,180.724854 265.051056,180.724854 270.397278,180.724854 
	C270.892059,175.348709 266.825226,175.866196 263.153442,174.869843 
z"/>
<path fill="#000000" opacity="1.000000" stroke="none" 
	d="
M238.028595,201.979324 
	C236.885452,204.362778 235.507034,206.665604 234.656006,209.149155 
	C233.473785,212.599243 230.582336,213.743576 227.699158,214.959457 
	C226.599258,215.423340 225.386490,215.286636 224.493179,214.292419 
	C223.615509,213.315552 223.295456,211.696838 224.141159,211.125351 
	C227.809052,208.646805 226.670517,205.045105 226.677643,201.732635 
	C226.684799,198.400665 227.270569,195.465042 225.121017,191.824005 
	C223.373413,188.863846 225.314102,183.306137 226.554077,179.181427 
	C227.164490,177.151016 227.358841,175.532364 227.001724,173.552261 
	C226.218933,169.211868 227.376907,165.414322 230.918900,161.869476 
	C234.826614,165.024719 234.395508,169.548508 235.221268,173.518265 
	C235.516922,174.939575 234.725021,176.914124 236.011887,177.769791 
	C242.172379,181.866074 238.386993,185.134979 234.627197,189.138702 
	C236.128326,188.694321 236.854401,188.479385 238.258575,188.063721 
	C237.910156,192.598328 239.013031,196.908478 238.068512,201.651947 
	C238.000656,202.005524 238.028595,201.979324 238.028595,201.979324 
z"/>
<path fill="#000000" opacity="1.000000" stroke="none" 
	d="
M270.625977,220.013672 
	C270.643799,216.527786 270.661316,213.539276 270.680908,210.550766 
	C270.692444,208.793228 271.070587,207.490295 273.053894,206.714386 
	C278.780609,204.473953 280.134705,205.243668 280.055267,211.522354 
	C279.870514,226.123535 279.530060,240.722778 279.345978,255.323975 
	C279.307373,258.384186 278.758789,260.356720 274.994110,260.371857 
	C271.235474,260.386963 270.637207,258.479065 270.653564,255.378540 
	C270.714905,243.756409 270.646393,232.133606 270.625977,220.013672 
z"/>
<path fill="#000000" opacity="1.000000" stroke="none" 
	d="
M184.805679,293.663635 
	C185.127213,291.404785 185.478958,289.442719 185.703766,287.466248 
	C186.031036,284.588959 187.596970,283.579254 190.438599,283.650818 
	C193.386475,283.725037 194.110992,285.342590 194.107132,287.814819 
	C194.096466,294.634155 194.127548,301.453796 194.061844,308.272583 
	C194.044144,310.109711 193.938599,312.313019 191.268585,312.003296 
	C188.691345,311.704315 189.086853,309.472656 189.163803,307.687897 
	C189.311920,304.252136 189.560974,300.820740 189.039154,297.299988 
	C188.455475,301.191162 187.847137,305.078857 187.300140,308.975159 
	C187.077332,310.562164 186.708176,311.983307 184.774155,312.103607 
	C182.579086,312.240112 181.978073,310.759247 181.714447,308.958130 
	C181.333679,306.356934 180.924576,303.759888 180.077637,301.188660 
	C180.077637,303.772461 180.148148,306.358948 180.051453,308.939117 
	C179.992584,310.510223 179.484146,312.001160 177.548553,312.069580 
	C175.569138,312.139587 174.990875,310.684357 174.978287,309.085754 
	C174.919312,301.602631 174.910110,294.118652 174.957458,286.635437 
	C174.972626,284.236206 176.597137,283.674255 178.688553,283.681458 
	C180.810623,283.688721 182.754501,283.803680 183.134796,286.505096 
	C183.481766,288.969696 183.859879,291.429932 184.223160,293.892212 
	C184.247406,294.056671 184.199310,294.304077 184.291199,294.374847 
	C185.066360,294.971954 184.587585,294.069153 184.805679,293.663635 
z"/>
<path fill="#000000" opacity="1.000000" stroke="none" 
	d="
M244.454727,225.386444 
	C244.905472,218.564072 243.506714,212.069580 244.966644,205.682251 
	C251.341537,205.350555 253.125702,206.781067 253.145157,212.443909 
	C253.193695,226.570572 253.150177,240.697540 253.175446,254.824310 
	C253.180847,257.842682 253.154892,260.409424 248.848999,260.370667 
	C244.478027,260.331299 244.689240,257.625732 244.674835,254.692673 
	C244.627533,245.053986 244.538651,235.415497 244.454727,225.386444 
z"/>
<path fill="#000000" opacity="1.000000" stroke="none" 
	d="
M302.332153,310.416260 
	C302.144775,303.167511 302.013336,296.343201 302.116241,289.522430 
	C302.150452,287.256531 301.209534,284.140320 305.070374,283.749481 
	C308.578613,283.394287 311.742401,283.806213 313.387054,287.623230 
	C314.635223,290.519958 314.094360,293.532562 314.183716,296.501373 
	C314.268829,299.329559 314.363800,302.174774 314.158203,304.990906 
	C313.683533,311.492218 308.393890,314.091949 302.332153,310.416260 
M309.116211,305.384705 
	C309.898804,299.999451 310.032288,294.659058 308.262421,289.424103 
	C307.527039,294.947174 307.454712,300.446991 307.590485,305.941650 
	C307.616425,306.992157 308.430389,306.545410 309.116211,305.384705 
z"/>
<path fill="#000000" opacity="1.000000" stroke="none" 
	d="
M357.089203,302.671478 
	C357.097168,298.067413 356.966492,293.916199 357.167389,289.781128 
	C357.337097,286.287811 358.914032,283.549133 362.844940,283.537476 
	C366.759827,283.525848 368.330658,286.042511 368.420105,289.716064 
	C368.541016,294.683594 368.803253,299.651031 368.783813,304.617615 
	C368.769043,308.387299 367.561310,311.831879 363.175385,312.086975 
	C358.584412,312.354004 357.538513,308.865204 357.190552,305.117920 
	C357.129333,304.458435 357.124908,303.793671 357.089203,302.671478 
M363.764679,296.588074 
	C363.764679,294.238373 363.764679,291.888672 363.764679,289.538971 
	C363.385376,289.559967 363.006042,289.580994 362.626740,289.601990 
	C362.626740,295.131683 362.626740,300.661346 362.626740,306.191040 
	C363.006409,306.199951 363.386047,306.208862 363.765717,306.217773 
	C363.765717,303.315796 363.765717,300.413818 363.764679,296.588074 
z"/>
<path fill="#000000" opacity="1.000000" stroke="none" 
	d="
M382.115417,305.173767 
	C382.338959,307.452484 382.689606,309.372131 383.050293,311.346466 
	C379.287109,313.490051 378.379333,310.648804 377.231537,307.997864 
	C376.210022,309.709076 377.119507,312.766266 373.958282,312.067169 
	C371.491791,311.521729 371.879395,309.353546 371.861450,307.607574 
	C371.796570,301.303192 371.835022,294.997803 371.824860,288.692780 
	C371.820587,286.052643 371.933746,283.641632 375.624634,283.664581 
	C378.888214,283.684906 382.661407,283.476562 382.997589,287.629395 
	C383.458832,293.326904 384.385559,299.178467 382.115417,305.173767 
M378.708832,296.138062 
	C378.708832,293.941956 378.708832,291.745850 378.708832,289.549744 
	C378.359741,289.565491 378.010681,289.581238 377.661591,289.596954 
	C377.661591,293.157501 377.661591,296.718018 377.661591,300.278564 
	C377.918213,300.280029 378.174835,300.281494 378.431458,300.282959 
	C378.523102,299.164795 378.614746,298.046661 378.708832,296.138062 
z"/>
<path fill="#000000" opacity="1.000000" stroke="none" 
	d="
M285.250885,299.569824 
	C284.426636,303.806152 282.790985,307.548615 284.958466,311.321350 
	C281.459595,313.363037 280.104889,311.449677 278.987701,308.530975 
	C277.886780,309.912598 278.464294,312.733795 275.707550,312.038025 
	C273.456970,311.470001 273.746674,309.615814 273.732635,308.023621 
	C273.676971,301.718292 273.695801,295.412262 273.701965,289.106476 
	C273.704559,286.446228 273.290588,283.676941 277.464447,283.642517 
	C281.307220,283.610840 284.671722,284.049866 285.101440,288.678040 
	C285.422424,292.135040 285.225769,295.640106 285.250885,299.569824 
M280.502563,299.584869 
	C279.754425,296.179382 281.374420,292.470001 279.373383,289.197571 
	C277.940613,292.886780 278.336670,296.622314 278.770538,300.292572 
	C278.919067,301.548615 279.919739,300.988770 280.502563,299.584869 
z"/>
<path fill="#000000" opacity="1.000000" stroke="none" 
	d="
M288.018158,188.030212 
	C287.054626,186.700424 286.060150,185.391708 285.136444,184.034805 
	C284.238220,182.715363 283.608826,180.640442 284.889435,179.951523 
	C290.780670,176.782333 287.617523,170.697174 289.583435,166.298645 
	C290.308746,164.675873 290.099304,162.338959 292.303711,162.133209 
	C294.596344,161.919205 294.876831,164.294128 295.645844,165.877609 
	C295.718079,166.026413 295.823792,166.183533 295.826263,166.338165 
	C295.963318,175.060547 299.525696,183.641068 296.911743,192.470261 
	C296.783386,192.903870 296.382996,193.256958 296.009766,193.789474 
	C292.737701,192.934357 291.446198,189.505432 288.295990,188.121353 
	C287.996246,188.002533 288.018158,188.030212 288.018158,188.030212 
z"/>
<path fill="#000000" opacity="1.000000" stroke="none" 
	d="
M250.710175,286.807800 
	C250.926071,284.606262 251.774139,283.587830 253.695496,284.012451 
	C255.172638,284.338928 255.251892,285.629547 255.257126,286.777344 
	C255.291199,294.264862 255.292130,301.752747 255.253281,309.240265 
	C255.246124,310.620850 254.939041,311.973175 253.106079,311.973694 
	C251.363342,311.974182 250.930557,310.739563 250.751373,309.324615 
	C250.287628,305.662933 251.444794,301.828400 249.616486,297.491180 
	C247.588745,301.264923 248.720291,304.579529 248.466385,307.732666 
	C248.328079,309.450317 249.024918,311.857483 246.323929,311.999023 
	C243.198486,312.162781 243.773987,309.504486 243.749863,307.651306 
	C243.665405,301.162567 243.660858,294.671509 243.742188,288.182800 
	C243.763214,286.505066 243.149384,284.145447 245.929016,283.960724 
	C248.787003,283.770782 248.141449,286.264893 248.574997,287.876953 
	C248.896576,289.072571 249.169205,290.281372 249.523895,291.730560 
	C251.139313,290.202759 250.347946,288.595001 250.710175,286.807800 
z"/>
<path fill="#000000" opacity="1.000000" stroke="none" 
	d="
M210.277161,303.956116 
	C209.921310,306.912476 213.325729,310.771759 209.589539,311.727234 
	C205.442429,312.787842 206.929901,307.882233 205.814667,305.686462 
	C205.378082,304.826904 205.442368,303.710632 203.794876,303.427338 
	C201.304276,304.682159 202.201126,307.630188 201.368774,309.751038 
	C200.825882,311.134369 200.360962,312.217133 198.696487,312.041565 
	C196.876953,311.849640 196.682129,310.441528 196.881592,309.094086 
	C197.994064,301.579468 199.182281,294.075958 200.365479,286.571930 
	C200.711990,284.374420 202.063797,283.592194 204.240524,283.727448 
	C206.362122,283.859222 206.967209,285.093994 207.275681,286.936035 
	C208.203217,292.475128 209.243958,297.995239 210.277161,303.956116 
z"/>
<path fill="#000000" opacity="1.000000" stroke="none" 
	d="
M146.722275,304.882996 
	C146.725098,299.245605 146.752380,294.094177 146.727005,288.942993 
	C146.713211,286.143707 146.643021,283.589447 150.707108,283.625183 
	C154.328125,283.657074 157.709396,283.969025 158.110748,288.332153 
	C158.504807,292.615906 158.315048,296.963318 158.213852,301.278839 
	C158.157516,303.680969 156.686554,305.309113 154.469955,306.071808 
	C152.975204,306.586121 151.643707,307.070496 151.426849,308.887238 
	C151.225204,310.576721 151.091263,312.471283 148.632141,311.972534 
	C146.701569,311.580963 146.850113,309.834839 146.764557,308.359406 
	C146.706909,307.365204 146.735031,306.366028 146.722275,304.882996 
M151.361115,297.922302 
	C151.511932,298.982971 150.963211,300.304718 152.910965,301.057800 
	C154.145370,297.098022 153.787735,293.258423 153.113083,288.197815 
	C150.878891,291.687744 151.557083,294.498230 151.361115,297.922302 
z"/>
<path fill="#000000" opacity="1.000000" stroke="none" 
	d="
M258.718811,292.066711 
	C258.975616,287.925812 257.143311,283.113983 264.042664,283.594849 
	C268.183136,283.883423 270.177979,285.658600 270.275116,289.657288 
	C270.359741,293.140137 270.272980,296.626801 270.311340,300.111237 
	C270.342102,302.902832 269.199799,305.019379 266.569153,305.956421 
	C264.659088,306.636780 263.339081,307.483002 263.284302,309.707001 
	C263.246429,311.243256 262.510864,312.272980 260.779816,311.985870 
	C259.099487,311.707092 258.812439,310.353455 258.798096,308.983582 
	C258.740814,303.507965 258.741455,298.031799 258.718811,292.066711 
M265.660645,293.763977 
	C265.358368,292.286469 266.400269,290.509399 264.483521,289.078522 
	C262.847229,293.127319 263.047272,296.960510 264.146881,301.686401 
	C266.286163,299.051392 265.407990,296.701111 265.660645,293.763977 
z"/>
<path fill="#000000" opacity="1.000000" stroke="none" 
	d="
M325.698853,292.201752 
	C325.890656,285.743622 328.350311,282.907745 332.554626,283.871826 
	C334.896362,284.408722 336.289795,285.936768 336.831909,288.252411 
	C337.074402,289.288269 336.986237,290.237885 335.951385,290.851196 
	C333.901794,292.065918 332.679779,290.090027 330.688293,289.307922 
	C330.688293,294.910126 330.688293,300.238403 330.688293,306.100006 
	C332.665833,304.811554 334.104919,302.738831 336.184448,304.226227 
	C337.644745,305.270721 337.163177,306.915039 336.593994,308.343506 
	C335.633972,310.752991 333.773804,312.230896 331.230011,312.074249 
	C327.729797,311.858673 325.815948,309.693390 325.746094,306.165680 
	C325.657074,301.669556 325.707977,297.170624 325.698853,292.201752 
z"/>
<path fill="#000000" opacity="1.000000" stroke="none" 
	d="
M298.456177,294.468079 
	C298.724609,295.692566 298.607727,296.868530 297.762085,296.892944 
	C293.141266,297.026306 293.152435,300.034821 293.280121,303.421814 
	C293.370087,305.808746 293.582031,307.744598 296.630310,307.785919 
	C297.940918,307.803711 298.828400,308.522919 298.747009,309.979248 
	C298.669678,311.362946 297.775452,311.873352 296.508484,312.194855 
	C291.001007,313.592407 288.743103,311.954102 288.721283,306.380829 
	C288.697937,300.413818 288.669098,294.446045 288.745300,288.479919 
	C288.767151,286.769409 288.176300,284.447449 290.638092,283.947113 
	C293.039093,283.459167 295.673035,283.089752 297.933289,284.291870 
	C299.341339,285.040710 299.070465,286.667847 297.930603,287.659698 
	C296.510132,288.895721 293.022583,287.770203 293.565735,291.199677 
	C293.968262,293.741394 297.287720,292.193176 298.456177,294.468079 
z"/>
<path fill="#000000" opacity="1.000000" stroke="none" 
	d="
M236.218918,304.440857 
	C239.480072,303.199554 240.685425,304.615997 240.098755,307.393372 
	C239.382263,310.785278 237.020050,312.564056 233.529129,311.969513 
	C230.464111,311.447449 229.063354,308.962433 228.950348,306.162933 
	C228.722641,300.521454 228.564926,294.842743 228.963318,289.220856 
	C229.309052,284.342102 234.638474,281.994049 238.064743,284.886597 
	C239.661011,286.234222 241.030594,288.178406 239.764252,290.104218 
	C238.144089,292.568115 236.394928,290.548767 234.377151,289.007385 
	C232.805832,295.131561 233.127853,300.816162 233.870422,306.599518 
	C235.671997,306.412415 235.598572,305.382751 236.218918,304.440857 
z"/>
<path fill="#000000" opacity="1.000000" stroke="none" 
	d="
M287.981964,187.992096 
	C289.788300,189.905869 291.571625,191.867065 293.436646,193.747223 
	C298.561371,198.913513 297.641083,207.187881 290.875458,211.801132 
	C288.674042,205.686966 283.546143,200.786819 285.435028,193.425400 
	C285.774261,192.103394 285.008636,190.520416 284.865051,189.047028 
	C284.613190,186.462830 285.861084,186.671326 287.755402,187.872910 
	C288.018158,188.030212 287.996246,188.002533 287.981964,187.992096 
z"/>
<path fill="#000000" opacity="1.000000" stroke="none" 
	d="
M211.239929,286.641907 
	C211.096207,283.818542 212.822845,283.723358 214.553574,283.701843 
	C216.884308,283.672852 219.217880,283.638000 221.545990,283.722504 
	C222.807983,283.768311 224.384369,283.444611 224.939590,285.109833 
	C225.539963,286.910431 224.612442,287.825378 222.923843,288.417877 
	C220.879044,289.135376 221.205994,291.062408 221.189362,292.677277 
	C221.137939,297.672241 221.213318,302.668762 221.137863,307.663116 
	C221.108856,309.582123 221.467575,312.137177 218.467896,312.032745 
	C215.555603,311.931366 215.976028,309.394409 215.938431,307.478149 
	C215.856766,303.316711 215.571198,299.119171 215.989746,294.999451 
	C216.399979,290.961517 215.078812,288.429535 211.239929,286.641907 
z"/>
<path fill="#000000" opacity="1.000000" stroke="none" 
	d="
M343.332855,283.762726 
	C346.453461,283.717224 349.118713,283.685181 351.782867,283.725220 
	C353.138977,283.745575 354.547119,283.855438 354.783295,285.638428 
	C354.962219,286.989685 354.372681,287.985413 353.007568,288.187531 
	C350.198395,288.603516 350.302948,290.653870 350.303284,292.697174 
	C350.303772,295.528900 350.695465,298.433563 350.194183,301.174316 
	C349.533569,304.786102 352.567474,311.474304 348.123688,311.392700 
	C343.188904,311.302124 346.583191,304.615723 345.739288,300.933472 
	C345.340332,299.192657 345.742554,297.281189 345.655426,295.453064 
	C345.508179,292.363647 346.860382,288.849915 341.863800,287.615570 
	C339.975372,287.148987 340.366180,284.579834 343.332855,283.762726 
z"/>
<path fill="#000000" opacity="1.000000" stroke="none" 
	d="
M168.554382,312.239960 
	C163.171432,313.062378 161.274078,311.125702 161.599533,306.001007 
	C161.997314,299.737701 161.680435,293.430084 161.714066,287.141815 
	C161.722763,285.515961 161.501038,283.570923 163.957520,283.509186 
	C166.450317,283.446503 166.280197,285.392914 166.293411,287.025513 
	C166.336273,292.320709 166.335632,297.616425 166.316589,302.911835 
	C166.307953,305.313965 166.167038,307.712738 169.622299,307.788513 
	C170.762985,307.813507 171.415649,308.561005 171.432556,309.726013 
	C171.456192,311.355560 170.549133,312.118164 168.554382,312.239960 
z"/>
<path fill="#000000" opacity="1.000000" stroke="none" 
	d="
M237.988068,202.019958 
	C240.768158,201.664612 242.857834,203.285034 243.019058,205.596985 
	C243.428894,211.474304 243.155334,217.399277 243.155334,223.555862 
	C235.283142,220.417084 233.001907,215.274765 235.803604,208.335175 
	C236.549713,206.487091 237.183472,204.593643 237.948700,202.350189 
	C238.028595,201.979324 238.000656,202.005524 237.988068,202.019958 
z"/>
<path fill="#000000" opacity="1.000000" stroke="none" 
	d="
M280.819641,210.280884 
	C280.470276,206.439651 281.730408,203.762222 284.294006,201.527344 
	C291.365417,214.195282 292.480164,214.938202 281.754211,222.937943 
	C280.040527,218.855881 281.145935,214.715439 280.819641,210.280884 
z"/>
<path fill="#000000" opacity="1.000000" stroke="none" 
	d="
M322.264832,291.102142 
	C322.263885,297.090759 322.294983,302.590881 322.250397,308.090393 
	C322.237152,309.726959 322.370056,311.760925 319.986664,311.795197 
	C317.539246,311.830353 317.732239,309.749908 317.719330,308.138123 
	C317.666138,301.471985 317.637848,294.804443 317.730225,288.139191 
	C317.752991,286.497955 317.036957,284.015930 319.920654,284.010345 
	C322.718475,284.004944 322.074463,286.410034 322.251129,288.115051 
	C322.336578,288.939575 322.267151,289.780121 322.264832,291.102142 
z"/>
<path fill="#000000" opacity="1.000000" stroke="none" 
	d="
M138.717911,306.774445 
	C138.717941,300.342468 138.656937,294.384613 138.762543,288.429688 
	C138.794464,286.629761 138.073196,283.918671 141.203568,284.021637 
	C143.941650,284.111694 143.258621,286.602600 143.283859,288.250610 
	C143.380127,294.536835 143.398834,300.826721 143.281143,307.112122 
	C143.248154,308.873962 144.203384,311.686951 141.167007,311.761230 
	C138.218704,311.833313 138.956345,309.095886 138.717911,306.774445 
z"/>
</svg>